<svg width="17" height="16" viewBox="0 0 17 16" fill="none" xmlns="http://www.w3.org/2000/svg">
<path fill-rule="evenodd" clip-rule="evenodd" d="M0.645752 1.15641C0.645752 0.788223 0.944229 0.489746 1.31242 0.489746H3.91987C4.23762 0.489746 4.51121 0.714003 4.57357 1.02557L5.11867 3.74906H15.6534C15.8521 3.74906 16.0404 3.83767 16.167 3.99076C16.2937 4.14384 16.3455 4.34544 16.3082 4.54061L15.2653 10.0097L15.2643 10.0147L15.2643 10.0147C15.1742 10.4683 14.9275 10.8757 14.5672 11.1657C14.2088 11.4542 13.7609 11.6082 13.301 11.601H6.97627C6.5164 11.6082 6.06842 11.4542 5.71003 11.1657C5.34996 10.8759 5.10325 10.4686 5.01307 10.0153L5.01296 10.0147L3.9242 4.57495C3.91972 4.5567 3.916 4.53816 3.91307 4.51936L3.37341 1.82308H1.31242C0.944229 1.82308 0.645752 1.5246 0.645752 1.15641ZM6.52837 12.8757C5.80043 12.8757 5.21031 13.4658 5.21031 14.1938C5.21031 14.9217 5.80043 15.5118 6.52837 15.5118C7.25632 15.5118 7.84644 14.9217 7.84644 14.1938C7.84644 13.4658 7.25632 12.8757 6.52837 12.8757ZM13.6984 12.8757C12.9704 12.8757 12.3803 13.4658 12.3803 14.1938C12.3803 14.9217 12.9704 15.5118 13.6984 15.5118C14.4263 15.5118 15.0164 14.9217 15.0164 14.1938C15.0164 13.4658 14.4263 12.8757 13.6984 12.8757Z" fill="#2D3440"/>
</svg>
